<?xml version="1.0" standalone="no"?><!DOCTYPE svg PUBLIC "-//W3C//DTD SVG 1.1//EN" "http://www.w3.org/Graphics/SVG/1.1/DTD/svg11.dtd"><svg t="1679924493524" class="icon" viewBox="0 0 1024 1024" version="1.1" xmlns="http://www.w3.org/2000/svg" p-id="25562" xmlns:xlink="http://www.w3.org/1999/xlink" width="128" height="128"><path d="M64 928c0 53 43 96 96 96h704c53 0 96-43 96-96V384H64v544z m128-384c0-17.6 14.4-32 32-32h192c17.6 0 32 14.4 32 32v192c0 17.6-14.4 32-32 32H224c-17.6 0-32-14.4-32-32v-192zM864 128h-96V32c0-17.6-14.4-32-32-32h-64c-17.6 0-32 14.4-32 32v96H384V32c0-17.6-14.4-32-32-32h-64c-17.6 0-32 14.4-32 32v96H160C107 128 64 171 64 224v96h896v-96c0-53-43-96-96-96z" p-id="25563" fill="currentColor"></path></svg>