<?xml version="1.0" standalone="no"?><!DOCTYPE svg PUBLIC "-//W3C//DTD SVG 1.1//EN" "http://www.w3.org/Graphics/SVG/1.1/DTD/svg11.dtd"><svg t="1680356467912" class="icon" viewBox="0 0 1024 1024" version="1.1" xmlns="http://www.w3.org/2000/svg" p-id="4285" xmlns:xlink="http://www.w3.org/1999/xlink" width="128" height="128"><path d="M853.333333 113.777778h-56.888889a113.777778 113.777778 0 0 0-113.777777-113.777778H341.333333a113.777778 113.777778 0 0 0-113.777777 113.777778H170.666667a113.777778 113.777778 0 0 0-113.777778 113.777778v682.666666a113.777778 113.777778 0 0 0 113.777778 113.777778h682.666666a113.777778 113.777778 0 0 0 113.777778-113.777778V227.555556a113.777778 113.777778 0 0 0-113.777778-113.777778zM341.333333 113.777778h341.333334v113.777778H341.333333V113.777778z m512 796.444444H170.666667V227.555556h56.888889a113.777778 113.777778 0 0 0 113.777777 113.777777h341.333334a113.777778 113.777778 0 0 0 113.777777-113.777777h56.888889v682.666666z" fill="#555555" p-id="4286"></path><path d="M711.111111 455.111111h-398.222222a28.444444 28.444444 0 0 0-28.444445 28.444445v56.888888a28.444444 28.444444 0 0 0 28.444445 28.444445h398.222222a28.444444 28.444444 0 0 0 28.444445-28.444445v-56.888888a28.444444 28.444444 0 0 0-28.444445-28.444445zM711.111111 682.666667h-398.222222a28.444444 28.444444 0 0 0-28.444445 28.444444v56.888889a28.444444 28.444444 0 0 0 28.444445 28.444444h398.222222a28.444444 28.444444 0 0 0 28.444445-28.444444v-56.888889a28.444444 28.444444 0 0 0-28.444445-28.444444z" fill="#555555" p-id="4287"></path></svg>